<svg width="212" height="48" fill="none" xmlns="http://www.w3.org/2000/svg"><mask id="a" maskUnits="userSpaceOnUse" x="0" y="0" width="47" height="48"><path fill-rule="evenodd" clip-rule="evenodd" d="M16.87 3.04c-.648.386-1.261.75-1.766.959-.551.229-1.273.418-2.038.618-1.925.503-4.319 1.13-6.188 3-1.87 1.869-2.496 4.263-3 6.186-.199.765-.388 1.488-.618 2.041-.208.502-.571 1.115-.957 1.762C1.276 19.336 0 21.485 0 24.221s1.276 4.884 2.301 6.611c.386.65.751 1.263.96 1.767.229.553.418 1.275.617 2.04.504 1.923 1.13 4.317 3 6.188 1.87 1.869 4.262 2.494 6.185 2.998.77.201 1.49.39 2.041.619.505.209 1.118.573 1.767.958 1.726 1.026 3.875 2.302 6.611 2.302 2.737 0 4.886-1.276 6.613-2.302.652-.387 1.264-.75 1.764-.958.553-.23 1.273-.418 2.036-.618 1.93-.505 4.323-1.13 6.192-3 1.87-1.87 2.496-4.263 3-6.185.2-.767.39-1.49.618-2.042.21-.504.573-1.117.96-1.766 1.024-1.727 2.3-3.875 2.3-6.612 0-2.736-1.276-4.884-2.3-6.61-.387-.65-.75-1.264-.96-1.767-.229-.553-.419-1.275-.618-2.04-.504-1.925-1.13-4.318-3-6.187-1.869-1.87-4.263-2.497-6.186-3-.766-.2-1.488-.39-2.04-.618-.504-.21-1.118-.573-1.767-.96-1.727-1.024-3.875-2.3-6.612-2.3-2.736 0-4.883 1.276-6.611 2.3zm-2.333 13.006c-.316-.078-.638-.182-.882-.4-1.007-.901.64-1.527 1.33-1.694 3.448-.833 6.998-1.22 10.544-1.268 1.927-.025 3.871.05 5.743.51.842.206 1.683.5 2.357 1.048.328.267.622.617.675 1.036.052.419-.225.895-.644.934a1.397 1.397 0 01-.434-.053c-.226-.052-.446-.104-.629.02-.23.157-.233.493-.167.764.386 1.577 2.153 2.492 2.64 4.043.064.203.096.447-.04.613-.11.135-.299.173-.471.203-.806.136-1.62.274-2.437.24-.816-.032-1.649-.25-2.291-.756-.936-.738-1.336-1.958-2.084-2.886-.807-1.001-1.998-1.62-3.254-1.939a8.005 8.005 0 00-.75-.154c-1.52-.242-3.071-.122-4.61-.033a31.22 31.22 0 01-1.837.065c-.931 0-1.858-.069-2.76-.293zm2.826 8.139c-.442-.122-.905-.275-1.203-.624-.583-.685-.328-1.955.212-2.59.605-.71 1.635-.971 2.509-1.144a22.246 22.246 0 014.725-.412c.653.013 1.345.068 1.878.448.618.441.883 1.216 1.111 1.94.041.133.084.27.092.407a.677.677 0 01-.018.214c-.05.194-.2.346-.349.48-1.171 1.054-2.723 1.626-4.29 1.782a9.745 9.745 0 01-.985.048c-1.24 0-2.482-.219-3.682-.55zm19.517 5.588a.591.591 0 01-.252-.12c-.43-.301-.84-.646-1.118-1.09-.8-1.286-.727-3.5.473-4.494a.468.468 0 01.225-.12c.12-.017.236.053.333.13.899.699 1.215 1.904 1.39 3.031.056.362.104.732.083 1.096-.007.12-.022.241-.047.36-.096.478-.376.944-.819 1.15a.523.523 0 01-.223.06l-.045-.003zm-8.53.547a4.226 4.226 0 01-.93-.099 34.169 34.169 0 01-2.064-.547 3.342 3.342 0 01-.84-.397c-.257-.166-.363-.44-.342-.755.017-.233.026-.466.04-.713 0-.22.007-.454-.002-.688-.012-.326.085-.621.32-.835.248-.226.516-.441.81-.598.715-.382 1.446-.732 2.175-1.086.646-.315 1.318-.38 2.007-.152.536.177 1.07.36 1.602.55.633.227 1.015.65 1.031 1.352.008.406.02.812.037 1.217.029.693-.306 1.175-.886 1.5-.569.316-1.15.611-1.725.916-.383.202-.79.335-1.224.335h-.01zm3.1 6.125c-.495-.246-.976-.521-1.465-.778-.486-.255-.672-.653-.532-1.18.16-.606.325-1.21.496-1.813.148-.525.491-.911.946-1.182a55.71 55.71 0 012.184-1.232c.454-.245.916-.251 1.347.09.271.212.549.416.828.617.471.337.596.816.53 1.352a42.561 42.561 0 01-.28 1.878c-.098.576-.39 1.031-.907 1.323-.52.292-1.04.583-1.562.87-.28.154-.578.24-.914.281-.225-.073-.462-.122-.67-.226z" fill="#fff"/></mask><g mask="url(#a)"><path fill-rule="evenodd" clip-rule="evenodd" d="M16.87 3.04c-.648.386-1.261.75-1.766.959-.551.229-1.273.418-2.038.618-1.925.503-4.319 1.13-6.188 3-1.87 1.869-2.496 4.263-3 6.186-.199.765-.388 1.488-.618 2.041-.208.502-.571 1.115-.957 1.762C1.276 19.336 0 21.485 0 24.221s1.276 4.884 2.301 6.611c.386.65.751 1.263.96 1.767.229.553.418 1.275.617 2.04.504 1.923 1.13 4.317 3 6.188 1.87 1.869 4.262 2.494 6.185 2.998.77.201 1.49.39 2.041.619.505.209 1.118.573 1.767.958 1.726 1.026 3.875 2.302 6.611 2.302 2.737 0 4.886-1.276 6.613-2.302.652-.387 1.264-.75 1.764-.958.553-.23 1.273-.418 2.036-.618 1.93-.505 4.323-1.13 6.192-3 1.87-1.87 2.496-4.263 3-6.185.2-.767.39-1.49.618-2.042.21-.504.573-1.117.96-1.766 1.024-1.727 2.3-3.875 2.3-6.612 0-2.736-1.276-4.884-2.3-6.61-.387-.65-.75-1.264-.96-1.767-.229-.553-.419-1.275-.618-2.04-.504-1.925-1.13-4.318-3-6.187-1.869-1.87-4.263-2.497-6.186-3-.766-.2-1.488-.39-2.04-.618-.504-.21-1.118-.573-1.767-.96-1.727-1.024-3.875-2.3-6.612-2.3-2.736 0-4.883 1.276-6.611 2.3zm-2.333 13.006c-.316-.078-.638-.182-.882-.4-1.007-.901.64-1.527 1.33-1.694 3.448-.833 6.998-1.22 10.544-1.268 1.927-.025 3.871.05 5.743.51.842.206 1.683.5 2.357 1.048.328.267.622.617.675 1.036.052.419-.225.895-.644.934a1.397 1.397 0 01-.434-.053c-.226-.052-.446-.104-.629.02-.23.157-.233.493-.167.764.386 1.577 2.153 2.492 2.64 4.043.064.203.096.447-.04.613-.11.135-.299.173-.471.203-.806.136-1.62.274-2.437.24-.816-.032-1.649-.25-2.291-.756-.936-.738-1.336-1.958-2.084-2.886-.807-1.001-1.998-1.62-3.254-1.939a8.005 8.005 0 00-.75-.154c-1.52-.242-3.071-.122-4.61-.033a31.22 31.22 0 01-1.837.065c-.931 0-1.858-.069-2.76-.293zm2.826 8.139c-.442-.122-.905-.275-1.203-.624-.583-.685-.328-1.955.212-2.59.605-.71 1.635-.971 2.509-1.144a22.246 22.246 0 014.725-.412c.653.013 1.345.068 1.878.448.618.441.883 1.216 1.111 1.94.041.133.084.27.092.407a.677.677 0 01-.018.214c-.05.194-.2.346-.349.48-1.171 1.054-2.723 1.626-4.29 1.782a9.745 9.745 0 01-.985.048c-1.24 0-2.482-.219-3.682-.55zm19.517 5.588a.591.591 0 01-.252-.12c-.43-.301-.84-.646-1.118-1.09-.8-1.286-.727-3.5.473-4.494a.468.468 0 01.225-.12c.12-.017.236.053.333.13.899.699 1.215 1.904 1.39 3.031.056.362.104.732.083 1.096-.007.12-.022.241-.047.36-.096.478-.376.944-.819 1.15a.523.523 0 01-.223.06l-.045-.003zm-8.53.547a4.226 4.226 0 01-.93-.099 34.169 34.169 0 01-2.064-.547 3.342 3.342 0 01-.84-.397c-.257-.166-.363-.44-.342-.755.017-.233.026-.466.04-.713 0-.22.007-.454-.002-.688-.012-.326.085-.621.32-.835.248-.226.516-.441.81-.598.715-.382 1.446-.732 2.175-1.086.646-.315 1.318-.38 2.007-.152.536.177 1.07.36 1.602.55.633.227 1.015.65 1.031 1.352.008.406.02.812.037 1.217.029.693-.306 1.175-.886 1.5-.569.316-1.15.611-1.725.916-.383.202-.79.335-1.224.335h-.01zm3.1 6.125c-.495-.246-.976-.521-1.465-.778-.486-.255-.672-.653-.532-1.18.16-.606.325-1.21.496-1.813.148-.525.491-.911.946-1.182a55.71 55.71 0 012.184-1.232c.454-.245.916-.251 1.347.09.271.212.549.416.828.617.471.337.596.816.53 1.352a42.561 42.561 0 01-.28 1.878c-.098.576-.39 1.031-.907 1.323-.52.292-1.04.583-1.562.87-.28.154-.578.24-.914.281-.225-.073-.462-.122-.67-.226z" fill="url(#paint0_linear)"/></g><path fill-rule="evenodd" clip-rule="evenodd" d="M83.922 12.092c-.49.014-.96.12-1.355.407-.333.24-.572.585-.804.923-2.395 3.471-4.787 6.943-7.18 10.414l-6.569-9.5c-.48-.695-.98-1.41-1.69-1.868a2.552 2.552 0 00-1.46-.421c-.34.013-.96.106-1.03.515-.049.295-.005.63-.006.93a3127.645 3127.645 0 00.009 18.691l.002.55 4-.004.045-11.51 5.325 7.596c.356.508.854 1.08 1.466.971.345-.062.61-.33.841-.594 2.124-2.415 3.497-5.435 5.738-7.741l.06 11.262h4.028l-.004-20.49c-.46-.075-.947-.145-1.416-.131zm41.354 11.51c.237-1.866 1.829-3.156 3.852-3.146 1.934.009 3.418 1.29 3.606 3.146h-7.458zm7.661-5.521c-2.883-1.521-6.951-1.09-9.24 1.07-2.631 2.482-3.158 5.578-2.085 8.88 1.077 3.314 3.649 4.85 7.036 5.078 2.663.177 5.105-.497 7.389-2.065l-1.516-2.695c-4.944 2.359-8.796 1.624-9.233-1.739h11.161c.082-.307.168-.526.198-.753.438-3.263-1.048-6.37-3.71-7.776z" fill="#000"/><path fill-rule="evenodd" clip-rule="evenodd" d="M151.465 17.588a332.3 332.3 0 00-1.92-.037c-.362-.006-.745-.007-1.059.174-.438.252-.623.778-.776 1.26a179.445 179.445 0 01-2.916 8.474 995.847 995.847 0 00-3.618-9.043c-.102-.25-.216-.516-.44-.664-.217-.143-.494-.148-.754-.148-.65 0-1.301 0-1.951-.002h-.975c-.156 0-.313-.005-.468 0-.181.004-.221.001-.171.177.086.305.268.61.396.9l.396.9.793 1.8c1.056 2.4 2.112 4.8 3.169 7.198l1.267 2.88c.193.436.388.888.391 1.365.003.474-.189.934-.457 1.326-.981 1.434-3.094 1.947-4.625 1.124l-.662 3.227c1.574.874 3.556 1.073 5.198.335 1.213-.545 2.173-1.55 2.881-2.676.708-1.126 1.188-2.377 1.664-3.619l5.716-14.925c-.359-.01-.72-.018-1.079-.026zM95.371 29.545c-2.387.03-4.253-1.935-4.226-4.449.026-2.387 1.88-4.256 4.218-4.25 2.308.005 4.192 1.928 4.2 4.29.008 2.439-1.838 4.38-4.192 4.409zm-.009-12.36c-4.7.009-8.16 3.379-8.168 7.955-.007 4.643 3.46 8.059 8.18 8.06 4.669 0 8.153-3.479 8.133-8.12-.019-4.482-3.55-7.904-8.145-7.895zm88.215 12.36c-2.367-.037-4.165-1.958-4.146-4.431.019-2.387 1.864-4.263 4.202-4.268 2.348-.005 4.247 1.963 4.216 4.37-.032 2.435-1.936 4.365-4.272 4.329zm.127-12.36c-4.701-.021-8.197 3.339-8.221 7.9-.024 4.66 3.41 8.091 8.123 8.114 4.685.023 8.157-3.397 8.19-8.064.031-4.463-3.498-7.93-8.092-7.95zm-67.909.314c-2.464-.738-4.738-.354-6.496 1.749-.051.06-.158.075-.277.129l-.075-1.712h-3.75v15.088h3.913V31.63c.008-2.46-.027-4.92.039-7.378.056-2.055 1.472-3.43 3.382-3.436 1.948-.005 3.165 1.225 3.215 3.39.058 2.492.026 4.985.032 7.478v1.065h3.917c0-3.443.121-6.833-.04-10.208-.117-2.447-1.429-4.313-3.86-5.041zm92.179 5.299c-.093-2.48-1.305-4.366-3.735-5.263-2.368-.875-4.869-.248-6.558 1.583-.091.099-.214.169-.369.288l-.085-1.764h-3.712v15.096h3.883c0-.462-.002-.855 0-1.247.012-2.493-.041-4.988.058-7.477.078-1.95 1.588-3.24 3.502-3.197 1.801.04 2.96 1.252 3.078 3.227.024.398.028.798.029 1.197.002 2.16.001 4.32.001 6.48v1.014h3.938c0-3.362.093-6.653-.03-9.937zm-50.026-10.572h-4.036v20.52h14.493V28.79h-10.457V12.226z" fill="#000"/><mask id="b" maskUnits="userSpaceOnUse" x="0" y="0" width="212" height="48"><path fill-rule="evenodd" clip-rule="evenodd" d="M0 47.704h211.73V.738H0v46.966z" fill="#fff"/></mask><g mask="url(#b)" fill-rule="evenodd" clip-rule="evenodd" fill="#000"><path d="M170.003 32.752h3.841V17.657h-3.841v15.095zm1.939-21.695c-1.41.009-2.477 1.09-2.433 2.466.044 1.353 1.098 2.353 2.464 2.334 1.376-.019 2.36-1.027 2.36-2.416 0-1.372-1.025-2.393-2.391-2.384zm36.992 4.583c-1.239 0-2.143-.971-2.143-2.194 0-1.205.904-2.193 2.126-2.193 1.223 0 2.11.988 2.11 2.21 0 1.206-.887 2.177-2.093 2.177zm-.017-4.94c-1.574 0-2.83 1.222-2.83 2.746 0 1.558 1.256 2.78 2.83 2.78 1.591 0 2.813-1.222 2.813-2.78 0-1.524-1.222-2.746-2.813-2.746z"/><path d="M208.8 13.33h-.301v-.788c.066-.017.184-.033.351-.033.402 0 .587.167.587.418 0 .285-.285.402-.637.402zm.753.2v-.033c.336-.101.57-.335.57-.637a.765.765 0 00-.268-.603c-.201-.117-.435-.2-.955-.2-.452 0-.804.033-1.055.083v2.747h.637V13.78h.301c.352 0 .519.134.569.436.085.317.134.57.218.67h.687c-.067-.1-.117-.268-.201-.687-.084-.369-.235-.57-.503-.67z"/></g><defs><linearGradient id="paint0_linear" x1="-7.449" y1="89.929" x2="58.259" y2="89.929" gradientUnits="userSpaceOnUse"><stop stop-color="#00CD87"/><stop offset="1" stop-color="#00C8D6"/></linearGradient></defs></svg>